<svg width="50" height="28" viewBox="0 0 50 28" fill="none" xmlns="http://www.w3.org/2000/svg">
<path d="M-42.2953 14.1966V7.59058L-43.2831 4.93578L-41.9249 5.30621L-40.6284 7.59054L-35.9979 8.08444L-32.4788 7.59054C-32.4788 7.59054 -18.2167 0.737549 -3.95582 0.737549C3.51458 0.737549 7.58357 1.1448 11.3924 2.47871C13.3431 3.16406 15.2264 4.08386 17.4676 5.31868L17.4682 5.32434C19.3945 6.38635 21.5803 7.68291 24.2968 9.245L24.8893 9.58485C25.087 9.70209 25.2909 9.81311 25.4942 9.93035C25.8029 10.1093 34.3845 10.0538 40.8671 11.1034C47.3496 12.1529 51.486 14.7459 51.486 14.7459L52.3504 16.8451L53.153 17.5859L52.5356 23.6364L54.2025 25.7355H43.157V20.1854C43.157 15.6847 39.5082 12.0297 35.0013 12.0297C30.4944 12.0297 26.8457 15.6785 26.8457 20.1854V25.7355H-11.7359V20.1854C-11.7359 15.6847 -15.3847 12.0297 -19.8916 12.0297C-24.3923 12.0297 -28.0473 15.6785 -28.0473 20.1854V24.5874L-43.9697 21.9757V15.6783L-42.2953 14.1966ZM20.9073 22.1609C21.395 22.1609 21.8272 21.846 21.988 21.3832L23.7909 15.9808C23.902 15.641 23.723 15.2705 23.3775 15.1533C23.3095 15.1284 23.2415 15.1222 23.1736 15.1222L22.0991 15.1227L20.1235 22.1609L20.9073 22.1609ZM-2.96693 10.2454L18.5801 11.1097V8.70199C18.5801 8.70199 11.1714 3.33076 4.1327 3.33076H-4.2019L-2.96693 10.2454ZM-20.1306 9.87496H-7.35014V3.33067C-12.4744 3.33067 -21.427 7.22015 -21.427 7.22015L-20.1306 9.87496Z" fill="#2C2C2C"/>
<path d="M38.0101 20.191L38.6456 20.2035V20.1848C38.6456 19.7096 38.5527 19.24 38.3738 18.7954L37.1203 19.3142C37.2313 19.5861 37.2931 19.8823 37.2931 20.1786V20.191L38.0101 20.191Z" fill="#2C2C2C"/>
<path d="M37.114 21.061C36.9967 21.3391 36.8302 21.5918 36.6201 21.8019L37.5773 22.7648C37.9172 22.4249 38.1822 22.0239 38.3674 21.5855L37.114 21.061Z" fill="#2C2C2C"/>
<path d="M36.6195 18.5727L37.5824 17.6155C37.2426 17.2756 36.8478 17.0043 36.4031 16.8191L35.8781 18.0725C36.1568 18.1904 36.4094 18.3631 36.6195 18.5727Z" fill="#2C2C2C"/>
<path d="M35.0028 22.469V23.8272C35.478 23.8272 35.9538 23.7343 36.3922 23.5491L35.8733 22.2957C35.5958 22.4135 35.299 22.469 35.0028 22.469Z" fill="#2C2C2C"/>
<path d="M33.4585 20.1851C33.4585 21.0376 34.1496 21.7286 35.0021 21.7286C35.8545 21.7286 36.5456 21.0376 36.5456 20.1851C36.5456 19.3326 35.8546 18.6416 35.0021 18.6416C34.1496 18.6416 33.4585 19.3326 33.4585 20.1851Z" fill="#2C2C2C"/>
<path d="M35.0028 17.9H35.009V16.5417H35.0028C34.5276 16.5417 34.058 16.6346 33.6196 16.8136L34.1385 18.0733C34.4103 17.9555 34.7066 17.9 35.0028 17.9Z" fill="#2C2C2C"/>
<path d="M33.3846 21.8018L32.4217 22.759C32.7615 23.0988 33.1625 23.3639 33.6009 23.5491L34.1198 22.2957C33.8479 22.1784 33.6009 22.0119 33.3846 21.8018Z" fill="#2C2C2C"/>
<path d="M32.4349 17.5984C32.095 17.932 31.8237 18.333 31.6385 18.7776L32.892 19.3027C33.0092 19.0246 33.1757 18.7776 33.3921 18.5618L32.4349 17.5984Z" fill="#2C2C2C"/>
<path d="M32.7176 20.1721H31.3594V20.1846C31.3594 20.6598 31.4523 21.1356 31.6375 21.5796L32.8909 21.0608C32.7737 20.7827 32.7182 20.4865 32.7182 20.1902L32.7176 20.1721Z" fill="#2C2C2C"/>
<path d="M35.0028 12.7756C39.0962 12.7756 42.4114 16.0908 42.4114 20.1843C42.4114 24.2776 39.0963 27.5929 35.0028 27.5929C30.9093 27.5929 27.5942 24.2778 27.5942 20.1843C27.5942 16.0909 30.9093 12.7756 35.0028 12.7756ZM35.0028 24.2589C37.2565 24.2589 39.0776 22.4374 39.0776 20.1841C39.0776 17.9304 37.2561 16.1093 35.0028 16.1093C32.7491 16.1093 30.928 17.9308 30.928 20.1841C30.928 22.4379 32.7495 24.2589 35.0028 24.2589Z" fill="#2C2C2C"/>
<path d="M38.0101 20.191L38.6456 20.2035V20.1848C38.6456 19.7096 38.5527 19.24 38.3738 18.7954L37.1203 19.3142C37.2313 19.5861 37.2931 19.8823 37.2931 20.1786V20.191L38.0101 20.191Z" fill="#2C2C2C"/>
<path d="M37.114 21.061C36.9967 21.3391 36.8302 21.5918 36.6201 21.8019L37.5773 22.7648C37.9172 22.4249 38.1822 22.0239 38.3674 21.5855L37.114 21.061Z" fill="#2C2C2C"/>
<path d="M36.6195 18.5727L37.5824 17.6155C37.2426 17.2756 36.8478 17.0043 36.4031 16.8191L35.8781 18.0725C36.1568 18.1904 36.4094 18.3631 36.6195 18.5727Z" fill="#2C2C2C"/>
<path d="M35.0028 22.469V23.8272C35.478 23.8272 35.9538 23.7343 36.3922 23.5491L35.8733 22.2957C35.5958 22.4135 35.299 22.469 35.0028 22.469Z" fill="#2C2C2C"/>
<path d="M33.4585 20.1851C33.4585 21.0376 34.1496 21.7286 35.0021 21.7286C35.8545 21.7286 36.5456 21.0376 36.5456 20.1851C36.5456 19.3326 35.8546 18.6416 35.0021 18.6416C34.1496 18.6416 33.4585 19.3326 33.4585 20.1851Z" fill="#2C2C2C"/>
<path d="M35.0028 17.9H35.009V16.5417H35.0028C34.5276 16.5417 34.058 16.6346 33.6196 16.8136L34.1385 18.0733C34.4103 17.9555 34.7066 17.9 35.0028 17.9Z" fill="#2C2C2C"/>
<path d="M33.3846 21.8018L32.4217 22.759C32.7615 23.0988 33.1625 23.3639 33.6009 23.5491L34.1198 22.2957C33.8479 22.1784 33.6009 22.0119 33.3846 21.8018Z" fill="#2C2C2C"/>
<path d="M32.8974 19.3021C33.0146 19.024 33.1812 18.7771 33.3975 18.5613L32.4403 17.5984C32.1004 17.932 31.8292 18.333 31.6439 18.7776L32.8974 19.3021Z" fill="#2C2C2C"/>
<path d="M31.3604 20.1721V20.1846C31.3604 20.6598 31.4533 21.1356 31.6385 21.5796L32.892 21.0608C32.7747 20.7827 32.7192 20.4865 32.7192 20.1902V20.1778H31.3604V20.1721Z" fill="#2C2C2C"/>
<path d="M33.4585 20.1851C33.4585 21.0376 34.1496 21.7286 35.0021 21.7286C35.8545 21.7286 36.5456 21.0376 36.5456 20.1851C36.5456 19.3326 35.8546 18.6416 35.0021 18.6416C34.1496 18.6416 33.4585 19.3326 33.4585 20.1851Z" fill="#2C2C2C"/>
<path d="M35.0028 22.469C35.299 22.469 35.5958 22.4135 35.8733 22.2957L36.3922 23.5491C35.9538 23.7281 35.4785 23.8272 35.0028 23.8272V22.469ZM33.3846 21.8018C33.5947 22.0119 33.8485 22.1851 34.126 22.2961L33.6072 23.5496C33.1688 23.3643 32.7678 23.0987 32.428 22.7594L33.3846 21.8018ZM37.114 21.061L38.3674 21.5855C38.1822 22.0239 37.9172 22.4249 37.5773 22.7648L36.6201 21.8019C36.8302 21.5918 36.9967 21.3391 37.114 21.061ZM32.7186 20.1851C32.7186 20.4876 32.7741 20.7838 32.8914 21.0557L31.6379 21.5745C31.4527 21.1299 31.3598 20.6609 31.3598 20.1794V20.167L32.7186 20.1664V20.1851ZM38.3742 18.802C38.5532 19.2403 38.6461 19.7156 38.6461 20.1913V20.21L38.01 20.1976L37.2873 20.197V20.1845C37.2873 19.8883 37.2318 19.5977 37.1145 19.3202L38.3742 18.802ZM32.4349 17.5984L33.3921 18.5607C33.1757 18.7708 33.0092 19.024 32.8919 19.3015L31.6385 18.7765C31.8294 18.3386 32.095 17.9382 32.4349 17.5984ZM36.4048 16.8263C36.8432 17.0115 37.2442 17.2834 37.5841 17.6227L36.6212 18.5799C36.411 18.3698 36.1578 18.197 35.8803 18.0798L36.4048 16.8263ZM35.0028 16.5417H35.009V17.9H35.0028C34.7066 17.9 34.4103 17.9555 34.1385 18.0733L33.6196 16.8136C34.058 16.6346 34.5276 16.5417 35.0028 16.5417Z" fill="#2C2C2C"/>
<path d="M-16.8782 20.191L-16.2421 20.2035V20.1848C-16.2421 19.7096 -16.335 19.24 -16.514 18.7954L-17.7674 19.3142C-17.6564 19.5861 -17.5947 19.8823 -17.5947 20.1786V20.191L-16.8782 20.191Z" fill="#2C2C2C"/>
<path d="M-17.7729 21.061C-17.8901 21.3391 -18.0566 21.5918 -18.273 21.8019L-17.3158 22.7648C-16.9759 22.4249 -16.7108 22.0239 -16.5256 21.5855L-17.7729 21.061Z" fill="#2C2C2C"/>
<path d="M-18.2659 18.5727L-17.303 17.6155C-17.6428 17.2756 -18.0376 17.0043 -18.4822 16.8191L-19.0073 18.0725C-18.7292 18.1904 -18.476 18.3631 -18.2659 18.5727Z" fill="#2C2C2C"/>
<path d="M-19.8841 22.469L-19.8903 23.8272H-19.8841C-19.4089 23.8272 -18.9331 23.7343 -18.4947 23.5491L-19.0135 22.2957C-19.2916 22.4135 -19.5878 22.469 -19.8841 22.469Z" fill="#2C2C2C"/>
<path d="M-21.4283 20.1851C-21.4283 21.0376 -20.7373 21.7286 -19.8848 21.7286C-19.0323 21.7286 -18.3412 21.0376 -18.3412 20.1851C-18.3412 19.3326 -19.0323 18.6416 -19.8848 18.6416C-20.7373 18.6416 -21.4283 19.3326 -21.4283 20.1851Z" fill="#2C2C2C"/>
<path d="M-19.884 17.9H-19.8716V16.5417H-19.884C-20.3592 16.5417 -20.8288 16.6346 -21.2672 16.8136L-20.7546 18.0733C-20.4765 17.9555 -20.1803 17.9 -19.884 17.9Z" fill="#2C2C2C"/>
<path d="M-21.5023 21.8018L-22.4651 22.759C-22.1253 23.0988 -21.7243 23.3639 -21.2859 23.5491L-20.7671 22.2957C-21.0389 22.1784 -21.2859 22.0119 -21.5023 21.8018Z" fill="#2C2C2C"/>
<path d="M-22.452 17.5984C-22.7919 17.932 -23.0632 18.333 -23.2484 18.7776L-21.9949 19.3027C-21.8777 19.0246 -21.7111 18.7776 -21.4948 18.5618L-22.452 17.5984Z" fill="#2C2C2C"/>
<path d="M-22.1678 20.1721H-23.526V20.1846C-23.526 20.6598 -23.4331 21.1356 -23.2479 21.5796L-21.9945 21.0608C-22.1117 20.7827 -22.1673 20.4865 -22.1673 20.1902L-22.1678 20.1721Z" fill="#2C2C2C"/>
<path d="M-19.8841 12.7756C-15.7907 12.7756 -12.4754 16.0908 -12.4754 20.1843C-12.4754 24.2776 -15.7906 27.5929 -19.8841 27.5929C-23.9775 27.5929 -27.2927 24.2778 -27.2927 20.1843C-27.2927 16.0909 -23.9775 12.7756 -19.8841 12.7756ZM-19.8841 24.2589C-17.6303 24.2589 -15.8093 22.4374 -15.8093 20.1841C-15.8093 17.9304 -17.6308 16.1093 -19.8841 16.1093C-22.1378 16.1093 -23.9588 17.9308 -23.9588 20.1841C-23.9588 22.4379 -22.1378 24.2589 -19.8841 24.2589Z" fill="#2C2C2C"/>
<path d="M-16.8782 20.191L-16.2421 20.2035V20.1848C-16.2421 19.7096 -16.335 19.24 -16.514 18.7954L-17.7674 19.3142C-17.6564 19.5861 -17.5947 19.8823 -17.5947 20.1786V20.191L-16.8782 20.191Z" fill="#2C2C2C"/>
<path d="M-17.7729 21.061C-17.8901 21.3391 -18.0566 21.5918 -18.273 21.8019L-17.3158 22.7648C-16.9759 22.4249 -16.7108 22.0239 -16.5256 21.5855L-17.7729 21.061Z" fill="#2C2C2C"/>
<path d="M-18.2659 18.5727L-17.303 17.6155C-17.6428 17.2756 -18.0376 17.0043 -18.4822 16.8191L-19.0073 18.0725C-18.7292 18.1904 -18.476 18.3631 -18.2659 18.5727Z" fill="#2C2C2C"/>
<path d="M-19.8841 22.469L-19.8903 23.8272H-19.8841C-19.4089 23.8272 -18.9331 23.7343 -18.4947 23.5491L-19.0135 22.2957C-19.2916 22.4135 -19.5878 22.469 -19.8841 22.469Z" fill="#2C2C2C"/>
<path d="M-21.4283 20.1851C-21.4283 21.0376 -20.7373 21.7286 -19.8848 21.7286C-19.0323 21.7286 -18.3412 21.0376 -18.3412 20.1851C-18.3412 19.3326 -19.0323 18.6416 -19.8848 18.6416C-20.7373 18.6416 -21.4283 19.3326 -21.4283 20.1851Z" fill="#2C2C2C"/>
<path d="M-19.884 17.9H-19.8716V16.5417H-19.884C-20.3592 16.5417 -20.8288 16.6346 -21.2672 16.8136L-20.7546 18.0733C-20.4765 17.9555 -20.1803 17.9 -19.884 17.9Z" fill="#2C2C2C"/>
<path d="M-21.5023 21.8018L-22.4651 22.759C-22.1253 23.0988 -21.7243 23.3639 -21.2859 23.5491L-20.7671 22.2957C-21.0389 22.1784 -21.2859 22.0119 -21.5023 21.8018Z" fill="#2C2C2C"/>
<path d="M-21.9894 19.3021C-21.8722 19.024 -21.7057 18.7771 -21.4893 18.5613L-22.4465 17.5984C-22.7864 17.932 -23.0577 18.333 -23.2429 18.7776L-21.9894 19.3021Z" fill="#2C2C2C"/>
<path d="M-23.526 20.1721V20.1846C-23.526 20.6598 -23.4331 21.1356 -23.2479 21.5796L-21.9945 21.0608C-22.1117 20.7827 -22.1673 20.4865 -22.1673 20.1902L-22.1677 20.1778H-23.5265L-23.526 20.1721Z" fill="#2C2C2C"/>
<path d="M-21.4283 20.1851C-21.4283 21.0376 -20.7373 21.7286 -19.8848 21.7286C-19.0323 21.7286 -18.3412 21.0376 -18.3412 20.1851C-18.3412 19.3326 -19.0323 18.6416 -19.8848 18.6416C-20.7373 18.6416 -21.4283 19.3326 -21.4283 20.1851Z" fill="#2C2C2C"/>
<path d="M-19.8841 22.469C-19.5878 22.469 -19.2916 22.4135 -19.0135 22.2957L-18.4947 23.5491C-18.9331 23.7281 -19.4083 23.8272 -19.8841 23.8272H-19.8903L-19.8841 22.469ZM-21.5023 21.8018C-21.2921 22.0119 -21.0384 22.1851 -20.7608 22.2961L-21.2796 23.5496C-21.718 23.3643 -22.1191 23.0987 -22.4589 22.7594L-21.5023 21.8018ZM-17.7729 21.061L-16.519 21.5864C-16.7042 22.0248 -16.9698 22.4258 -17.3091 22.7657L-18.2663 21.8028C-18.0562 21.5926 -17.8901 21.3391 -17.7729 21.061ZM-22.1678 20.1721L-22.1682 20.1851C-22.1682 20.4876 -22.1127 20.7838 -21.9955 21.0557L-23.2489 21.5745C-23.4342 21.1299 -23.5271 20.6609 -23.5271 20.1794V20.167L-22.1682 20.1664L-22.1678 20.1721ZM-16.5127 18.802C-16.3337 19.2403 -16.2408 19.7156 -16.2408 20.1913V20.21L-16.8769 20.1976H-17.599V20.1851C-17.599 19.8889 -17.6545 19.5983 -17.7718 19.3208L-16.5127 18.802ZM-22.452 17.5984L-21.4948 18.5607C-21.7111 18.7708 -21.8777 19.024 -21.9949 19.3015L-23.2484 18.7765C-23.0575 18.3386 -22.7919 17.9382 -22.452 17.5984ZM-18.4826 16.8263C-18.0442 17.0115 -17.6432 17.2834 -17.3034 17.6227L-18.2663 18.5799C-18.4764 18.3698 -18.7296 18.197 -19.0071 18.0798L-18.4826 16.8263ZM-19.884 16.5417H-19.8716V17.9H-19.884C-20.1803 17.9 -20.4765 17.9555 -20.7546 18.0733L-21.2672 16.8136C-20.8288 16.6346 -20.3592 16.5417 -19.884 16.5417Z" fill="#2C2C2C"/>
</svg>
