<svg width="24" height="24" viewBox="0 0 24 24" fill="none" xmlns="http://www.w3.org/2000/svg">
<path d="M11.993 7.36334C10.7672 7.36334 9.59162 7.84954 8.72484 8.71498C7.85806 9.58042 7.3711 10.7542 7.3711 11.9781C7.3711 13.202 7.85806 14.3758 8.72484 15.2413C9.59162 16.1067 10.7672 16.5929 11.993 16.5929C13.2189 16.5929 14.3945 16.1067 15.2613 15.2413C16.128 14.3758 16.615 13.202 16.615 11.9781C16.615 10.7542 16.128 9.58042 15.2613 8.71498C14.3945 7.84954 13.2189 7.36334 11.993 7.36334ZM11.993 14.9751C11.1967 14.9751 10.433 14.6593 9.86984 14.097C9.30674 13.5348 8.99038 12.7722 8.99038 11.9771C8.99038 11.182 9.30674 10.4194 9.86984 9.85721C10.433 9.29497 11.1967 8.97911 11.993 8.97911C12.7894 8.97911 13.5531 9.29497 14.1163 9.85721C14.6794 10.4194 14.9957 11.182 14.9957 11.9771C14.9957 12.7722 14.6794 13.5348 14.1163 14.097C13.5531 14.6593 12.7894 14.9751 11.993 14.9751Z" fill="black"/>
<path d="M16.7979 8.26948C17.393 8.26948 17.8755 7.78781 17.8755 7.19364C17.8755 6.59946 17.393 6.11779 16.7979 6.11779C16.2028 6.11779 15.7204 6.59946 15.7204 7.19364C15.7204 7.78781 16.2028 8.26948 16.7979 8.26948Z" fill="black"/>
<path d="M20.5232 6.0998C20.2918 5.50317 19.9382 4.96136 19.485 4.50904C19.0318 4.05672 18.489 3.70386 17.8914 3.47305C17.192 3.21094 16.4532 3.0692 15.7064 3.05389C14.7438 3.01198 14.4389 3 11.998 3C9.55709 3 9.24422 3 8.28965 3.05389C7.54337 3.06842 6.80507 3.21018 6.10662 3.47305C5.50882 3.70359 4.96589 4.05636 4.51266 4.50871C4.05943 4.96106 3.70591 5.50302 3.47479 6.0998C3.21221 6.79802 3.07058 7.53577 3.05598 8.28144C3.01299 9.24152 3 9.54591 3 11.984C3 14.4212 3 14.7315 3.05598 15.6866C3.07097 16.4331 3.21191 17.1697 3.47479 17.8693C3.70656 18.4658 4.06042 19.0076 4.51376 19.4599C4.9671 19.9121 5.50995 20.265 6.10762 20.496C6.80474 20.7687 7.54335 20.9205 8.29165 20.9451C9.25422 20.987 9.55908 21 12 21C14.4409 21 14.7538 21 15.7084 20.9451C16.4551 20.9299 17.1939 20.7886 17.8934 20.5269C18.4909 20.2956 19.0335 19.9424 19.4866 19.49C19.9398 19.0375 20.2935 18.4958 20.5252 17.8992C20.7881 17.2006 20.929 16.4641 20.944 15.7176C20.987 14.7575 21 14.4531 21 12.015C21 9.57685 21 9.26747 20.944 8.31238C20.9324 7.55616 20.79 6.80763 20.5232 6.0998ZM19.3058 15.6128C19.2993 16.1879 19.1942 16.7577 18.9949 17.2974C18.8448 17.6855 18.615 18.0379 18.3203 18.332C18.0255 18.6261 17.6724 18.8553 17.2837 19.005C16.7491 19.203 16.1845 19.308 15.6144 19.3154C14.6648 19.3593 14.3969 19.3703 11.962 19.3703C9.5251 19.3703 9.27621 19.3703 8.30864 19.3154C7.73882 19.3084 7.17447 19.2034 6.64038 19.005C6.25024 18.8563 5.89571 18.6274 5.59973 18.3333C5.30375 18.0391 5.07291 17.6862 4.92215 17.2974C4.72568 16.7635 4.62059 16.2004 4.61128 15.6317C4.5683 14.6836 4.55831 14.4162 4.55831 11.985C4.55831 9.55289 4.55831 9.30439 4.61128 8.33733C4.61774 7.7625 4.72289 7.19303 4.92215 6.65369C5.22701 5.86627 5.85173 5.24651 6.64038 4.94511C7.17473 4.74764 7.73892 4.64268 8.30864 4.63473C9.25922 4.59182 9.5261 4.57984 11.962 4.57984C14.3979 4.57984 14.6478 4.57984 15.6144 4.63473C16.1845 4.64158 16.7492 4.74658 17.2837 4.94511C17.6724 5.09508 18.0255 5.32455 18.3202 5.61879C18.6149 5.91303 18.8447 6.26554 18.9949 6.65369C19.1914 7.18757 19.2964 7.75066 19.3058 8.31936C19.3487 9.26846 19.3597 9.53493 19.3597 11.9671C19.3597 14.3982 19.3597 14.6597 19.3167 15.6138L19.3058 15.6128Z" fill="black"/>
</svg>
