<svg width="16" height="17" viewBox="0 0 16 17" fill="none" xmlns="http://www.w3.org/2000/svg">
<g clip-path="url(#clip0_17_4283)">
<path fill-rule="evenodd" clip-rule="evenodd" d="M7.99544 1.00427C8.12232 1.00427 8.2382 1.07631 8.29435 1.19009L10.2741 5.20153L14.7006 5.84305C14.8262 5.86126 14.9306 5.94925 14.9698 6.06999C15.009 6.19072 14.9762 6.32325 14.8853 6.4118L11.6776 9.53412L12.434 13.9432C12.4554 14.0684 12.404 14.1948 12.3012 14.2694C12.1985 14.3439 12.0623 14.3537 11.95 14.2945L7.99993 12.213L4.04056 14.2946C3.92825 14.3537 3.79216 14.3439 3.68951 14.2693C3.58686 14.1947 3.53545 14.0683 3.5569 13.9432L4.31325 9.53412L1.1056 6.4118C1.01463 6.32325 0.98186 6.19072 1.02107 6.06999C1.06028 5.94925 1.16466 5.86126 1.29029 5.84305L5.71678 5.20153L7.69652 1.19009C7.75268 1.07631 7.86856 1.00427 7.99544 1.00427Z" fill="#FEC110" stroke="#FEC110" stroke-linecap="round" stroke-linejoin="round"/>
</g>
<defs>
<clipPath id="clip0_17_4283">
<rect width="16" height="16" fill="white" transform="translate(0 0.00292969)"/>
</clipPath>
</defs>
</svg>
