<svg width="24" height="25" viewBox="0 0 24 25" fill="none" xmlns="http://www.w3.org/2000/svg">
<path d="M6.16797 18.8519C6.41548 18.0282 6.92194 17.3061 7.61222 16.7929C8.30249 16.2797 9.13982 16.0027 9.99997 16.0029H14C14.8612 16.0026 15.6996 16.2803 16.3904 16.7947C17.0811 17.3091 17.5874 18.0327 17.834 18.8579M21 12.0029C21 16.9735 16.9706 21.0029 12 21.0029C7.02944 21.0029 3 16.9735 3 12.0029C3 7.03237 7.02944 3.00293 12 3.00293C16.9706 3.00293 21 7.03237 21 12.0029ZM15 10.0029C15 11.6598 13.6569 13.0029 12 13.0029C10.3431 13.0029 9 11.6598 9 10.0029C9 8.34608 10.3431 7.00293 12 7.00293C13.6569 7.00293 15 8.34608 15 10.0029Z" stroke="#2C2C2C" stroke-width="1.5" stroke-linecap="round" stroke-linejoin="round"/>
</svg>
