<svg width="24" height="24" viewBox="0 0 24 24" fill="none" xmlns="http://www.w3.org/2000/svg">
<path d="M11.2517 14.1643V7.38416H12.1524V10.8251V11.9385L13.2594 11.8194C14.4672 11.6894 15.5825 10.9634 16.4438 10.0563C17.1496 9.31308 17.7471 8.38523 18.141 7.38416H19.0126C18.3225 9.17738 16.9185 10.5162 15.8786 11.1174L14.2208 12.0759L15.9547 12.8886C17.0028 13.3799 18.6201 14.5644 19.5729 16.6159H18.4982C17.5829 14.501 15.7167 12.8524 13.2514 12.6071L12.1524 12.4977V13.6021V16.5984C9.64626 16.4612 7.74083 15.5247 6.40807 13.9781C5.0945 12.4537 4.25748 10.2432 4.04736 7.38416H5.12707C5.4899 12.1572 7.77055 14.5748 10.0092 15.1344L11.2517 15.4451V14.1643Z" stroke="#2C2C2C" stroke-width="2"/>
</svg>
