<svg width="104" height="20" viewBox="0 0 104 20" fill="none" xmlns="http://www.w3.org/2000/svg">
<path d="M0 16.5824L3.26746 0.202223H7.07604L10.3227 16.5824H7.13847L6.53493 12.9828H3.87101L3.22584 16.5824H0ZM4.18319 10.9403H6.20194L5.18216 4.3276L4.18319 10.9403Z" fill="#2C2C2C"/>
<path d="M12.031 16.5824V0.202223H16.2975C17.0328 0.202223 17.7127 0.262891 18.337 0.384225C18.9614 0.50556 19.5094 0.721266 19.9812 1.03134C20.4668 1.34142 20.8345 1.77283 21.0842 2.32558C21.3478 2.86485 21.4796 3.57263 21.4796 4.44894C21.4796 5.10954 21.3825 5.67577 21.1883 6.14762C20.994 6.606 20.7165 6.97 20.3558 7.23964C19.9951 7.50927 19.5511 7.69127 19.0238 7.78564C19.6759 7.88001 20.224 8.09572 20.668 8.43276C21.112 8.7698 21.445 9.21469 21.6669 9.76744C21.8889 10.3202 21.9999 10.9875 21.9999 11.7695C21.9999 12.5918 21.8889 13.3064 21.6669 13.913C21.4588 14.5197 21.1466 15.0185 20.7304 15.4095C20.3142 15.8005 19.8008 16.0971 19.1903 16.2993C18.5799 16.488 17.8722 16.5824 17.0675 16.5824H12.031ZM15.465 14.2366H16.4224C17.2826 14.2366 17.8722 14.0276 18.1914 13.6097C18.5244 13.1918 18.6908 12.5649 18.6908 11.729C18.6908 11.0819 18.6145 10.5696 18.4619 10.1921C18.3093 9.80114 18.0596 9.51803 17.7127 9.34277C17.3797 9.15403 16.9288 9.05965 16.3599 9.05965H15.465V14.2366ZM15.465 6.81497H16.3183C16.9149 6.81497 17.3658 6.73407 17.6711 6.57229C17.9763 6.39703 18.1844 6.14088 18.2954 5.80384C18.4203 5.45332 18.4827 5.02865 18.4827 4.52983C18.4827 4.03101 18.3925 3.6333 18.2122 3.3367C18.0457 3.02662 17.7821 2.80418 17.4213 2.66936C17.0745 2.53455 16.6305 2.46714 16.0894 2.46714H15.465V6.81497Z" fill="#2C2C2C"/>
<path d="M25.5633 16.5824V2.68958H22.9618V0.202223H31.5779V2.68958H29.0181V16.5824H25.5633Z" fill="#2C2C2C"/>
<path d="M37.8106 16.8049C36.5758 16.8049 35.5976 16.5891 34.8761 16.1577C34.1547 15.7263 33.6344 15.1129 33.3153 14.3175C33.01 13.5086 32.8574 12.5447 32.8574 11.4257V5.3185C32.8574 4.19953 33.01 3.24233 33.3153 2.44692C33.6344 1.6515 34.1547 1.04482 34.8761 0.626894C35.5976 0.208963 36.5758 0 37.8106 0C39.0593 0 40.0444 0.215706 40.7659 0.647118C41.5013 1.06505 42.0215 1.67172 42.3268 2.46714C42.6459 3.24907 42.8055 4.19953 42.8055 5.3185V11.4257C42.8055 12.5447 42.6459 13.5086 42.3268 14.3175C42.0215 15.1129 41.5013 15.7263 40.7659 16.1577C40.0444 16.5891 39.0593 16.8049 37.8106 16.8049ZM37.8106 14.3984C38.2546 14.3984 38.5807 14.304 38.7888 14.1153C38.9969 13.913 39.1356 13.6501 39.205 13.3266C39.2744 12.9895 39.3091 12.6323 39.3091 12.2548V4.5096C39.3091 4.13212 39.2744 3.7816 39.205 3.45804C39.1356 3.13448 38.9969 2.87833 38.7888 2.68958C38.5807 2.48736 38.2546 2.38625 37.8106 2.38625C37.3944 2.38625 37.0822 2.48736 36.8741 2.68958C36.666 2.87833 36.5272 3.13448 36.4578 3.45804C36.3885 3.7816 36.3538 4.13212 36.3538 4.5096V12.2548C36.3538 12.6323 36.3815 12.9895 36.437 13.3266C36.5064 13.6501 36.6451 13.913 36.8533 14.1153C37.0614 14.304 37.3805 14.3984 37.8106 14.3984Z" fill="#2C2C2C"/>
<path d="M54.8591 20L54.4429 16.5824H45.14V0.202223H48.5739V14.3175H51.8206V0.202223H55.2545V14.3175H57.3982V20H54.8591Z" fill="#2C2C2C"/>
<path d="M59.0813 16.5824V0.202223H66.4279V2.50758H62.5153V6.85541H65.533V9.18099H62.5153V14.3175H66.4695V16.5824H59.0813Z" fill="#2C2C2C"/>
<path d="M68.2485 16.5824V0.202223H71.6824V6.9363H74.6585V0.202223H78.0925V16.5824H74.6585V9.32255H71.6824V16.5824H68.2485Z" fill="#2C2C2C"/>
<path d="M82.2675 16.5824V2.68958H79.666V0.202223H88.2822V2.68958H85.7223V16.5824H82.2675Z" fill="#2C2C2C"/>
<path d="M89.8113 16.5824V0.202223H95.16C96.1728 0.202223 96.9984 0.390965 97.6366 0.768451C98.2748 1.13245 98.7466 1.66498 99.0518 2.36603C99.3709 3.06707 99.5305 3.91641 99.5305 4.91405C99.5305 6.08696 99.3224 7.00371 98.9061 7.6643C98.5038 8.3249 97.9488 8.79676 97.2412 9.07988C96.5336 9.34951 95.7219 9.48433 94.8062 9.48433H93.2453V16.5824H89.8113ZM93.2453 7.13852H94.4524C94.9519 7.13852 95.3334 7.06437 95.597 6.91607C95.8745 6.75429 96.0618 6.50488 96.159 6.16784C96.2561 5.8308 96.3046 5.39939 96.3046 4.87361C96.3046 4.37479 96.263 3.95686 96.1798 3.61982C96.1104 3.28278 95.9439 3.01989 95.6803 2.83114C95.4167 2.6424 95.0004 2.54803 94.4316 2.54803H93.2453V7.13852Z" fill="#2C2C2C"/>
<path d="M101.003 16.5824V13.6097H104V16.5824H101.003Z" fill="#2C2C2C"/>
</svg>
