<svg width="24" height="24" viewBox="0 0 24 24" fill="none" xmlns="http://www.w3.org/2000/svg">
<path d="M20.6338 7.98131C20.5314 7.60124 20.3312 7.25462 20.0532 6.97597C19.7751 6.69731 19.429 6.49633 19.0491 6.39303C17.6407 6.0063 12.0062 6.00001 12.0062 6.00001C12.0062 6.00001 6.37262 5.99371 4.96331 6.36335C4.58371 6.4714 4.23826 6.67523 3.96013 6.95525C3.682 7.23528 3.48052 7.5821 3.37504 7.96242C3.0036 9.37082 3 12.292 3 12.292C3 12.292 2.9964 15.2275 3.36514 16.6215C3.572 17.3922 4.17907 18.0011 4.95072 18.2089C6.37352 18.5956 11.9927 18.6019 11.9927 18.6019C11.9927 18.6019 17.6273 18.6082 19.0357 18.2394C19.4156 18.1363 19.7621 17.9358 20.0408 17.6577C20.3196 17.3796 20.5209 17.0336 20.6248 16.6539C20.9972 15.2464 20.9999 12.3261 20.9999 12.3261C20.9999 12.3261 21.0179 9.38971 20.6338 7.98131ZM10.2039 14.9981L10.2084 9.60196L14.8914 12.3045L10.2039 14.9981Z" fill="black"/>
</svg>
